<svg xmlns="http://www.w3.org/2000/svg" viewBox="0 0 200 200" role="img" aria-label="Complexity Insights mark"><path d="M52 44 L38 44 L38 156 L52 156" fill="none" stroke="#1a2a44" stroke-width="7" stroke-linecap="round" stroke-linejoin="round"></path><path d="M148 44 L162 44 L162 156 L148 156" fill="none" stroke="#1a2a44" stroke-width="7" stroke-linecap="round" stroke-linejoin="round"></path><path d="M53 53 h43 v43 h-43 Z" fill="#1a2a44"></path><path d="M106.5 55.5 h38 v38 h-38 Z" fill="none" stroke="#1a2a44" stroke-width="5"></path><defs><clipPath id="hc1"><path d="M53 104 h43 v43 h-43 Z"></path></clipPath></defs><g clip-path="url(#hc1)"><line x1="10" y1="104" x2="53" y2="147" stroke="#1a2a44" stroke-width="3"></line><line x1="21" y1="104" x2="64" y2="147" stroke="#1a2a44" stroke-width="3"></line><line x1="32" y1="104" x2="75" y2="147" stroke="#1a2a44" stroke-width="3"></line><line x1="43" y1="104" x2="86" y2="147" stroke="#1a2a44" stroke-width="3"></line><line x1="54" y1="104" x2="97" y2="147" stroke="#1a2a44" stroke-width="3"></line><line x1="65" y1="104" x2="108" y2="147" stroke="#1a2a44" stroke-width="3"></line><line x1="76" y1="104" x2="119" y2="147" stroke="#1a2a44" stroke-width="3"></line><line x1="87" y1="104" x2="130" y2="147" stroke="#1a2a44" stroke-width="3"></line></g><path d="M55.5 106.5 h38 v38 h-38 Z" fill="none" stroke="#1a2a44" stroke-width="5"></path><path d="M104 104 h43 v43 h-43 Z" fill="#1a2a44"></path></svg>